0
SECTION
2
HEADER
9
$INSUNITS
70
4
9
$ACADVER
1
AC1014
9
$HANDSEED
5
FFFF
0
ENDSEC
0
SECTION
2
TABLES
0
TABLE
2
VPORT
5
8
100
AcDbSymbolTable
0
ENDTAB
0
TABLE
2
LTYPE
5
5
100
AcDbSymbolTable
0
LTYPE
5
14
100
AcDbSymbolTableRecord
100
AcDbLinetypeTableRecord
2
BYBLOCK
70
0
0
LTYPE
5
15
100
AcDbSymbolTableRecord
100
AcDbLinetypeTableRecord
2
BYLAYER
70
0
0
ENDTAB
0
TABLE
2
LAYER
5
2
100
AcDbSymbolTable
70
2
0
LAYER
5
50
100
AcDbSymbolTableRecord
100
AcDbLayerTableRecord
2
0
70
0
6
CONTINUOUS
0
ENDTAB
0
TABLE
2
STYLE
5
3
100
AcDbSymbolTable
70
1
0
STYLE
5
11
100
AcDbSymbolTableRecord
100
AcDbTextStyleTableRecord
2
STANDARD
70
0
0
ENDTAB
0
TABLE
2
VIEW
5
6
100
AcDbSymbolTable
70
0
0
ENDTAB
0
TABLE
2
UCS
5
7
100
AcDbSymbolTable
70
0
0
ENDTAB
0
TABLE
2
APPID
5
9
100
AcDbSymbolTable
70
2
0
APPID
5
12
100
AcDbSymbolTableRecord
100
AcDbRegAppTableRecord
2
ACAD
70
0
0
ENDTAB
0
TABLE
2
DIMSTYLE
5
A
100
AcDbSymbolTable
70
1
0
ENDTAB
0
TABLE
2
BLOCK_RECORD
5
1
100
AcDbSymbolTable
70
1
0
BLOCK_RECORD
5
1F
100
AcDbSymbolTableRecord
100
AcDbBlockTableRecord
2
*MODEL_SPACE
0
BLOCK_RECORD
5
1B
100
AcDbSymbolTableRecord
100
AcDbBlockTableRecord
2
*PAPER_SPACE
0
ENDTAB
0
ENDSEC
0
SECTION
2
BLOCKS
0
BLOCK
5
20
100
AcDbEntity
100
AcDbBlockBegin
2
*MODEL_SPACE
0
ENDBLK
5
21
100
AcDbEntity
100
AcDbBlockEnd
0
BLOCK
5
1C
100
AcDbEntity
100
AcDbBlockBegin
2
*PAPER_SPACE
0
ENDBLK
5
1D
100
AcDbEntity
100
AcDbBlockEnd
0
ENDSEC
0
SECTION
2
ENTITIES
0
LWPOLYLINE
5
100
100
AcDbEntity
8
0
100
AcDbPolyline
90
4
70
1
43
0.0
10
-235.51703199850365
20
23.761097661912935
10
-238.51703199775221
20
23.761097661912935
10
-238.51703199775221
20
16.761097661912935
10
-235.51703199850365
20
16.761097661912935
0
LWPOLYLINE
5
101
100
AcDbEntity
8
0
100
AcDbPolyline
90
4
70
1
43
0.0
10
-222.32983706090329
20
48.296006334690126
10
-222.32983706090329
20
45.296006335440289
10
-217.32983706090329
20
45.29600633544031
10
-217.32983706090329
20
48.296006334690126
0
LWPOLYLINE
5
102
100
AcDbEntity
8
0
100
AcDbPolyline
90
4
70
1
43
0.0
10
-237.32983706090329
20
48.296006334690126
10
-247.32983706090329
20
48.296006334690148
10
-247.32983706090329
20
45.296006335440211
10
-237.32983706090329
20
45.296006335440239
0
LWPOLYLINE
5
103
100
AcDbEntity
8
0
100
AcDbPolyline
90
4
70
1
43
0.0
10
-192.32983706090329
20
48.296006334690105
10
-202.32983706090329
20
48.296006334690105
10
-202.32983706090329
20
45.29600633544036
10
-192.32983706090329
20
45.296006335440396
0
LWPOLYLINE
5
104
100
AcDbEntity
8
0
100
AcDbPolyline
90
4
70
1
43
0.0
10
-183.94622274595554
20
48.76109766191292
10
-180.94622274670377
20
48.76109766191292
10
-180.94622274670377
20
54.761097661912935
10
-183.94622274595554
20
54.761097661912935
0
LWPOLYLINE
5
105
100
AcDbEntity
8
0
100
AcDbPolyline
90
4
70
1
43
0.0
10
-234.99143109021432
20
116.76109766191294
10
-234.99143109021432
20
126.76109766191294
10
-237.99143108946637
20
126.76109766191294
10
-237.99143108946637
20
116.76109766191294
0
LWPOLYLINE
5
106
100
AcDbEntity
8
0
100
AcDbPolyline
90
4
70
1
43
0.0
10
-234.99143109021432
20
66.761097661912927
10
-234.99143109021432
20
76.761097661912927
10
-237.99143108946637
20
76.761097661912927
10
-237.99143108946637
20
66.761097661912927
0
LWPOLYLINE
5
107
100
AcDbEntity
8
0
100
AcDbPolyline
90
4
70
1
43
0.0
10
-209.71547358752224
20
116.76109766191294
10
-209.71547358752224
20
126.76109766191294
10
-212.71547358677418
20
126.76109766191294
10
-212.71547358677418
20
116.76109766191294
0
LWPOLYLINE
5
108
100
AcDbEntity
8
0
100
AcDbPolyline
90
4
70
1
43
0.0
10
-212.71547358677418
20
176.76109766191291
10
-212.71547358677418
20
166.76109766191291
10
-209.71547358752224
20
166.76109766191291
10
-209.71547358752224
20
176.76109766191291
0
LWPOLYLINE
5
109
100
AcDbEntity
8
0
100
AcDbPolyline
90
4
70
1
43
0.0
10
-227.32983706090329
20
187.14629300294479
10
-217.32983706090329
20
187.14629300294479
10
-217.32983706090329
20
190.14629300219727
10
-227.32983706090329
20
190.14629300219727
0
LWPOLYLINE
5
110
100
AcDbEntity
8
0
100
AcDbPolyline
90
4
70
1
43
0.0
10
-272.32983706090329
20
187.14629300294479
10
-262.32983706090329
20
187.14629300294479
10
-262.32983706090329
20
190.14629300219727
10
-272.32983706090329
20
190.14629300219727
0
LWPOLYLINE
5
111
100
AcDbEntity
8
0
100
AcDbPolyline
90
8
70
1
43
0.0
10
-238.67781886429901
20
196.76109766191291
10
-238.67781886429901
20
196.76933312356996
10
-238.60798198757414
20
196.76933312356996
10
-238.60798198757414
20
206.76933312356996
10
-250.60798198682301
20
206.76933312356996
10
-250.60798198682301
20
206.76109766191291
10
-250.67781886354794
20
206.76109766191291
10
-250.67781886354794
20
196.76109766191291
0
LWPOLYLINE
5
112
100
AcDbEntity
8
0
100
AcDbPolyline
90
4
70
1
43
0.0
10
-192.32983706090329
20
210.01663122186923
10
-182.32983706090329
20
210.01663122186923
10
-182.32983706090329
20
213.01663122111793
10
-192.32983706090329
20
213.01663122111793
0
LWPOLYLINE
5
113
100
AcDbEntity
8
0
100
AcDbPolyline
90
4
70
1
43
0.0
10
-217.32983706090329
20
210.01663122186923
10
-207.32983706090329
20
210.01663122186923
10
-207.32983706090329
20
213.01663122111793
10
-217.32983706090329
20
213.01663122111793
0
LWPOLYLINE
5
114
100
AcDbEntity
8
0
100
AcDbPolyline
90
4
70
1
43
0.0
10
-180.94622274670377
20
83.761097661912927
10
-183.94622274595554
20
83.761097661912927
10
-183.94622274595554
20
78.761097661912927
10
-180.94622274670377
20
78.761097661912927
0
LWPOLYLINE
5
115
100
AcDbEntity
8
0
100
AcDbPolyline
90
4
70
1
43
0.0
10
-144.80423635628495
20
26.761097661912927
10
-144.80423635628495
20
36.761097661912927
10
-147.80423635553694
20
36.761097661912927
10
-147.80423635553694
20
26.761097661912927
0
LWPOLYLINE
5
116
100
AcDbEntity
8
0
100
AcDbPolyline
90
8
70
1
43
0.0
10
-157.32983706090329
20
81.508936140230219
10
-157.32983706090326
20
81.51717160188727
10
-157.26000018417835
20
81.51717160188727
10
-157.26000018417835
20
96.517171601137335
10
-167.26000018417835
20
96.517171601137335
10
-167.26000018417835
20
96.508936139480284
10
-167.32983706090329
20
96.508936139480298
10
-167.32983706090329
20
81.508936140230247
0
LWPOLYLINE
5
117
100
AcDbEntity
8
0
100
AcDbPolyline
90
4
70
1
43
0.0
10
-170.28825483383557
20
212.73075147429802
10
-170.28825483383557
20
214.73075147429799
10
-172.28825483383559
20
214.73075147429799
10
-172.28825483383557
20
212.73075147429802
0
LWPOLYLINE
5
118
100
AcDbEntity
8
0
100
AcDbPolyline
90
8
70
1
43
0.0
10
-169.02825483458699
20
196.76109766191291
10
-169.02825483458699
20
196.76933312356996
10
-168.95841795786203
20
196.76933312356996
10
-168.95841795786203
20
206.76933312356996
10
-171.95841795711067
20
206.76933312356996
10
-171.95841795711067
20
206.76109766191291
10
-172.02825483383563
20
206.76109766191291
10
-172.02825483383563
20
196.76109766191291
0
SPLINE
5
119
100
AcDbEntity
8
0
100
AcDbSpline
70
2
71
3
72
17
73
13
74
0
42
0.000000001
43
0.0000000001
44
0.0000000001
40
0
40
0
40
0
40
0
40
1
40
1
40
1
40
2
40
2
40
2
40
3
40
3
40
3
40
4
40
4
40
4
40
4
10
-255.88045414704914
20
20.717520475062084
30
0
10
-255.88045414704914
20
24.655311730379164
30
0
10
-252.68824361118385
20
27.847522266245615
30
0
10
-248.75045235586626
20
27.847522266245615
30
0
10
-244.81266110054855
20
27.847522266245615
30
0
10
-241.62045056468273
20
24.655311730379164
30
0
10
-241.62045056468273
20
20.717520475062084
30
0
10
-241.62045056468273
20
16.779729219743796
30
0
10
-244.81266110054855
20
13.587518683877345
30
0
10
-248.75045235586626
20
13.587518683877345
30
0
10
-252.68824361118385
20
13.587518683877345
30
0
10
-255.88045414704914
20
16.779729219743796
30
0
10
-255.88045414704914
20
20.717520475062084
30
0
0
SPLINE
5
120
100
AcDbEntity
8
0
100
AcDbSpline
70
2
71
3
72
17
73
13
74
0
42
0.000000001
43
0.0000000001
44
0.0000000001
40
0
40
0
40
0
40
0
40
1
40
1
40
1
40
2
40
2
40
2
40
3
40
3
40
3
40
4
40
4
40
4
40
4
10
-189.11820564735217
20
66.843186315530488
30
0
10
-189.11820564735217
20
70.780977570848179
30
0
10
-185.9259951114872
20
73.97318810671473
30
0
10
-181.98820385616926
20
73.97318810671473
30
0
10
-178.0504126008517
20
73.97318810671473
30
0
10
-174.85820206498579
20
70.780977570848179
30
0
10
-174.85820206498579
20
66.843186315530488
30
0
10
-174.85820206498579
20
62.90539506021284
30
0
10
-178.0504126008517
20
59.713184524346318
30
0
10
-181.98820385616926
20
59.713184524346318
30
0
10
-185.9259951114872
20
59.713184524346318
30
0
10
-189.11820564735217
20
62.90539506021284
30
0
10
-189.11820564735217
20
66.843186315530488
30
0
0
SPLINE
5
121
100
AcDbEntity
8
0
100
AcDbSpline
70
2
71
3
72
17
73
13
74
0
42
0.000000001
43
0.0000000001
44
0.0000000001
40
0
40
0
40
0
40
0
40
1
40
1
40
1
40
2
40
2
40
2
40
3
40
3
40
3
40
4
40
4
40
4
40
4
10
-233.47624578985454
20
59.069820420004234
30
0
10
-233.47624578985454
20
63.007611675321314
30
0
10
-230.28403525398886
20
66.199822211187765
30
0
10
-226.34624399867121
20
66.199822211187765
30
0
10
-222.40845274335342
20
66.199822211187765
30
0
10
-219.2162422074876
20
63.007611675321314
30
0
10
-219.2162422074876
20
59.069820420004234
30
0
10
-219.2162422074876
20
55.132029164685875
30
0
10
-222.40845274335342
20
51.939818628819353
30
0
10
-226.34624399867121
20
51.939818628819353
30
0
10
-230.28403525398886
20
51.939818628819353
30
0
10
-233.47624578985454
20
55.132029164685875
30
0
10
-233.47624578985454
20
59.069820420004234
30
0
0
SPLINE
5
122
100
AcDbEntity
8
0
100
AcDbSpline
70
2
71
3
72
17
73
13
74
0
42
0.000000001
43
0.0000000001
44
0.0000000001
40
0
40
0
40
0
40
0
40
1
40
1
40
1
40
2
40
2
40
2
40
3
40
3
40
3
40
4
40
4
40
4
40
4
10
-186.79280079556278
20
197.66713489658326
30
0
10
-186.79280079556278
20
201.60492615190091
30
0
10
-183.60059025969753
20
204.79713668776614
30
0
10
-179.66279900437982
20
204.79713668776614
30
0
10
-175.72500774906212
20
204.79713668776614
30
0
10
-172.53279721319316
20
201.60492615190091
30
0
10
-172.53279721319316
20
197.66713489658326
30
0
10
-172.53279721319316
20
193.72934364126553
30
0
10
-175.72500774906212
20
190.53713310539959
30
0
10
-179.66279900437982
20
190.53713310539959
30
0
10
-183.60059025969753
20
190.53713310539959
30
0
10
-186.79280079556278
20
193.72934364126553
30
0
10
-186.79280079556278
20
197.66713489658326
30
0
0
SPLINE
5
123
100
AcDbEntity
8
0
100
AcDbSpline
70
2
71
3
72
17
73
13
74
0
42
0.000000001
43
0.0000000001
44
0.0000000001
40
0
40
0
40
0
40
0
40
1
40
1
40
1
40
2
40
2
40
2
40
3
40
3
40
3
40
4
40
4
40
4
40
4
10
-141.22434546321421
20
204.20661263800054
30
0
10
-141.22434546321421
20
208.14440389331824
30
0
10
-138.03213492734903
20
211.33661442918341
30
0
10
-134.09434367203141
20
211.33661442918341
30
0
10
-130.15655241670984
20
211.33661442918341
30
0
10
-126.9643418808446
20
208.14440389331824
30
0
10
-126.9643418808446
20
204.20661263800054
30
0
10
-126.9643418808446
20
200.26882138268289
30
0
10
-130.15655241670984
20
197.076610846817
30
0
10
-134.09434367203141
20
197.076610846817
30
0
10
-138.03213492734903
20
197.076610846817
30
0
10
-141.22434546321421
20
200.26882138268289
30
0
10
-141.22434546321421
20
204.20661263800054
30
0
0
SPLINE
5
124
100
AcDbEntity
8
0
100
AcDbSpline
70
0
71
3
72
11
73
7
74
0
42
0.000000001
43
0.0000000001
44
0.0000000001
40
1.3993534604273277
40
1.3993534604273277
40
1.3993534604273277
40
1.3993534604273277
40
2
40
2
40
2
40
2.2115326667430075
40
2.2115326667430075
40
2.2115326667430075
40
2.2115326667430075
10
-152.73882502725328
20
131.38433512590956
30
0
10
-150.96565970795612
20
130.08727236237527
30
0
10
-149.81398591213468
20
127.99103949890224
30
0
10
-149.81398591213468
20
125.62581880783651
30
0
10
-149.81398591213468
20
124.79284732252174
30
0
10
-149.95682478535241
20
123.99323764359875
30
0
10
-150.21934455589496
20
123.25014774696042
30
0
0
SPLINE
5
125
100
AcDbEntity
8
0
100
AcDbSpline
70
0
71
3
72
8
73
4
74
0
42
0.000000001
43
0.0000000001
44
0.0000000001
40
2.2115326667430084
40
2.2115326667430084
40
2.2115326667430084
40
2.2115326667430084
40
2.7842684240090776
40
2.7842684240090776
40
2.7842684240090776
40
2.7842684240090776
10
-150.21934455589496
20
123.25014774696041
30
0
10
-150.93013056305887
20
121.23819299207153
30
0
10
-152.51827801124151
20
119.64057568567925
30
0
10
-154.52413277947988
20
118.9169499487467
30
0
0
SPLINE
5
126
100
AcDbEntity
8
0
100
AcDbSpline
70
0
71
3
72
11
73
7
74
0
42
0.000000001
43
0.0000000001
44
0.0000000001
40
2.7842684240090882
40
2.7842684240090882
40
2.7842684240090882
40
2.7842684240090882
40
3
40
3
40
3
40
3.5922684924635173
40
3.5922684924635173
40
3.5922684924635173
40
3.5922684924635173
10
-154.52413277948
20
118.91694994874668
30
0
10
-155.27967528729644
20
118.64438285532611
30
0
10
-156.09448178988526
20
118.4958170166517
30
0
10
-156.94398770331816
20
118.4958170166517
30
0
10
-159.27621739374126
20
118.4958170166517
30
0
10
-161.3469108127147
20
119.61558690802782
30
0
10
-162.64776322798326
20
121.34682195852466
30
0
0
SPLINE
5
127
100
AcDbEntity
8
0
100
AcDbSpline
70
0
71
3
72
8
73
4
74
0
42
0.000000001
43
0.0000000001
44
0.0000000001
40
3.5922684924639436
40
3.5922684924639436
40
3.5922684924639436
40
3.5922684924639436
40
4
40
4
40
4
40
4
10
-162.64776322798605
20
121.34682195852841
30
0
10
-163.54330051066802
20
122.53864473151204
30
0
10
-164.07398949450183
20
124.02025724294327
30
0
10
-164.07398949450183
20
125.62581880783651
30
0
0
SPLINE
5
128
100
AcDbEntity
8
0
100
AcDbSpline
70
0
71
3
72
8
73
4
74
0
42
0.000000001
43
0.0000000001
44
0.0000000001
40
0
40
0
40
0
40
0
40
0.45128415620705703
40
0.45128415620705703
40
0.45128415620705703
40
0.45128415620705703
10
-164.07398949450183
20
125.62581880783651
30
0
10
-164.07398949450183
20
127.40288161181181
30
0
10
-163.42387222957484
20
129.02810139269522
30
0
10
-162.34850097050702
20
130.27661487970047
30
0
0
SPLINE
5
129
100
AcDbEntity
8
0
100
AcDbSpline
70
0
71
3
72
11
73
7
74
0
42
0.000000001
43
0.0000000001
44
0.0000000001
40
0.45128415620707574
40
0.45128415620707574
40
0.45128415620707574
40
0.45128415620707574
40
1
40
1
40
1
40
1.3527265452764601
40
1.3527265452764601
40
1.3527265452764601
40
1.3527265452764601
10
-162.34850097050696
20
130.27661487970065
30
0
10
-161.0409583951826
20
131.79468087445403
30
0
10
-159.10471615466025
20
132.75582059901996
30
0
10
-156.94398770331816
20
132.75582059901996
30
0
10
-155.55502419781016
20
132.75582059901996
30
0
10
-154.25882287483086
20
132.35865848273568
30
0
10
-153.16275367139625
20
131.6717041871832
30
0
0
LINE
5
130
100
AcDbEntity
8
0
100
AcDbLine
10
-153.16275367139625
20
131.6717041871832
30
0
11
-152.84182979504536
21
131.27955441121219
31
0
0
LINE
5
131
100
AcDbEntity
8
0
100
AcDbLine
10
-152.84182979504536
20
131.27955441121219
30
0
11
-152.73882502725328
21
131.38433512590956
31
0
0
SPLINE
5
132
100
AcDbEntity
8
0
100
AcDbSpline
70
2
71
3
72
17
73
13
74
0
42
0.000000001
43
0.0000000001
44
0.0000000001
40
0
40
0
40
0
40
0
40
1
40
1
40
1
40
2
40
2
40
2
40
3
40
3
40
3
40
4
40
4
40
4
40
4
10
-72.377697508523653
20
52.210745262154518
30
0
10
-72.377697508523653
20
56.148536517472095
30
0
10
-69.185486972657699
20
59.340747053338546
30
0
10
-65.247695717340051
20
59.340747053338546
30
0
10
-61.309904462022686
20
59.340747053338546
30
0
10
-58.117693926156733
20
56.148536517472095
30
0
10
-58.117693926156733
20
52.210745262154518
30
0
10
-58.117693926156733
20
48.27295400683704
30
0
10
-61.309904462022686
20
45.080743470970305
30
0
10
-65.247695717340051
20
45.080743470970305
30
0
10
-69.185486972657699
20
45.080743470970305
30
0
10
-72.377697508523653
20
48.27295400683704
30
0
10
-72.377697508523653
20
52.210745262154518
30
0
0
SPLINE
5
133
100
AcDbEntity
8
0
100
AcDbSpline
70
2
71
3
72
17
73
13
74
0
42
0.000000001
43
0.0000000001
44
0.0000000001
40
0
40
0
40
0
40
0
40
1
40
1
40
1
40
2
40
2
40
2
40
3
40
3
40
3
40
4
40
4
40
4
40
4
10
-233.12346801216512
20
20.717520475061516
30
0
10
-233.12346801216512
20
24.655311730379164
30
0
10
-229.93125747629983
20
27.847522266245615
30
0
10
-225.99346622098216
20
27.847522266245615
30
0
10
-222.05567496566445
20
27.847522266245615
30
0
10
-218.86346442979863
20
24.655311730379164
30
0
10
-218.86346442979863
20
20.717520475061516
30
0
10
-218.86346442979863
20
16.779729219743796
30
0
10
-222.05567496566445
20
13.587518683877345
30
0
10
-225.99346622098216
20
13.587518683877345
30
0
10
-229.93125747629983
20
13.587518683877345
30
0
10
-233.12346801216512
20
16.779729219743796
30
0
10
-233.12346801216512
20
20.717520475061516
30
0
0
SPLINE
5
134
100
AcDbEntity
8
0
100
AcDbSpline
70
2
71
3
72
17
73
13
74
0
42
0.000000001
43
0.0000000001
44
0.0000000001
40
0
40
0
40
0
40
0
40
1
40
1
40
1
40
2
40
2
40
2
40
3
40
3
40
3
40
4
40
4
40
4
40
4
10
-25.00132994657605
20
187.22635335943448
30
0
10
-25.00132994657605
20
191.1641446147529
30
0
10
-21.809119410710878
20
194.35635515061807
30
0
10
-17.871328155393869
20
194.35635515061807
30
0
10
-13.933536900075438
20
194.35635515061807
30
0
10
-10.741326364209058
20
191.1641446147529
30
0
10
-10.741326364209058
20
187.22635335943448
30
0
10
-10.741326364209058
20
183.2885621041174
30
0
10
-13.933536900075438
20
180.09635156825087
30
0
10
-17.871328155393869
20
180.09635156825087
30
0
10
-21.809119410710878
20
180.09635156825087
30
0
10
-25.00132994657605
20
183.2885621041174
30
0
10
-25.00132994657605
20
187.22635335943448
30
0
0
SPLINE
5
135
100
AcDbEntity
8
0
100
AcDbSpline
70
2
71
3
72
17
73
13
74
0
42
0.000000001
43
0.0000000001
44
0.0000000001
40
0
40
0
40
0
40
0
40
1
40
1
40
1
40
2
40
2
40
2
40
3
40
3
40
3
40
4
40
4
40
4
40
4
10
-95.923124881843123
20
130.00402270771514
30
0
10
-95.923124881843123
20
133.94181396303293
30
0
10
-92.730914345973616
20
137.13402449889938
30
0
10
-88.79312309065952
20
137.13402449889938
30
0
10
-84.855331835338319
20
137.13402449889938
30
0
10
-81.663121299472721
20
133.94181396303293
30
0
10
-81.663121299472721
20
130.00402270771514
30
0
10
-81.663121299472721
20
126.06623145239749
30
0
10
-84.855331835338319
20
122.87402091653104
30
0
10
-88.79312309065952
20
122.87402091653104
30
0
10
-92.730914345973616
20
122.87402091653104
30
0
10
-95.923124881843123
20
126.06623145239749
30
0
10
-95.923124881843123
20
130.00402270771514
30
0
0
SPLINE
5
136
100
AcDbEntity
8
0
100
AcDbSpline
70
2
71
3
72
17
73
13
74
0
42
0.000000001
43
0.0000000001
44
0.0000000001
40
0
40
0
40
0
40
0
40
1
40
1
40
1
40
2
40
2
40
2
40
3
40
3
40
3
40
4
40
4
40
4
40
4
10
-254.96015180466642
20
94.227941315101617
30
0
10
-254.96015180466642
20
98.165732570418641
30
0
10
-251.76794126880125
20
101.35794310628515
30
0
10
-247.8301500134836
20
101.35794310628515
30
0
10
-243.89235875816587
20
101.35794310628515
30
0
10
-240.7001482222968
20
98.165732570418641
30
0
10
-240.7001482222968
20
94.227941315101617
30
0
10
-240.7001482222968
20
90.290150059783343
30
0
10
-243.89235875816587
20
87.09793952391685
30
0
10
-247.8301500134836
20
87.09793952391685
30
0
10
-251.76794126880125
20
87.09793952391685
30
0
10
-254.96015180466642
20
90.290150059783343
30
0
10
-254.96015180466642
20
94.227941315101617
30
0
0
SPLINE
5
137
100
AcDbEntity
8
0
100
AcDbSpline
70
2
71
3
72
17
73
13
74
0
42
0.000000001
43
0.0000000001
44
0.0000000001
40
0
40
0
40
0
40
0
40
1
40
1
40
1
40
2
40
2
40
2
40
3
40
3
40
3
40
4
40
4
40
4
40
4
10
-278.13850796771408
20
148.89903700881416
30
0
10
-278.13850796771408
20
152.83682826413181
30
0
10
-274.94629743184817
20
156.02903879999769
30
0
10
-271.00850617653037
20
156.02903879999769
30
0
10
-267.07071492121349
20
156.02903879999769
30
0
10
-263.87850438534747
20
152.83682826413181
30
0
10
-263.87850438534747
20
148.89903700881416
30
0
10
-263.87850438534747
20
144.96124575349651
30
0
10
-267.07071492121349
20
141.76903521762983
30
0
10
-271.00850617653037
20
141.76903521762983
30
0
10
-274.94629743184817
20
141.76903521762983
30
0
10
-278.13850796771408
20
144.96124575349651
30
0
10
-278.13850796771408
20
148.89903700881416
30
0
0
SPLINE
5
138
100
AcDbEntity
8
0
100
AcDbSpline
70
2
71
3
72
17
73
13
74
0
42
0.000000001
43
0.0000000001
44
0.0000000001
40
0
40
0
40
0
40
0
40
1
40
1
40
1
40
2
40
2
40
2
40
3
40
3
40
3
40
4
40
4
40
4
40
4
10
-208.33701412600035
20
116.42584999574612
30
0
10
-208.33701412600035
20
120.3636412510632
30
0
10
-205.14480359013453
20
123.55585178692974
30
0
10
-201.20701233481682
20
123.55585178692974
30
0
10
-197.26922107949918
20
123.55585178692974
30
0
10
-194.07701054363321
20
120.3636412510632
30
0
10
-194.07701054363321
20
116.42584999574612
30
0
10
-194.07701054363321
20
112.48805874042785
30
0
10
-197.26922107949918
20
109.29584820456128
30
0
10
-201.20701233481682
20
109.29584820456128
30
0
10
-205.14480359013453
20
109.29584820456128
30
0
10
-208.33701412600035
20
112.48805874042785
30
0
10
-208.33701412600035
20
116.42584999574612
30
0
0
SPLINE
5
139
100
AcDbEntity
8
0
100
AcDbSpline
70
2
71
3
72
17
73
13
74
0
42
0.000000001
43
0.0000000001
44
0.0000000001
40
0
40
0
40
0
40
0
40
1
40
1
40
1
40
2
40
2
40
2
40
3
40
3
40
3
40
4
40
4
40
4
40
4
10
-95.634105877911892
20
222.02127865960603
30
0
10
-95.634105877911892
20
225.95906991492367
30
0
10
-92.441895342046436
20
229.15128045078885
30
0
10
-88.504104086728859
20
229.15128045078885
30
0
10
-84.566312831411423
20
229.15128045078885
30
0
10
-81.374102295545399
20
225.95906991492367
30
0
10
-81.374102295545399
20
222.02127865960603
30
0
10
-81.374102295545399
20
218.08348740428829
30
0
10
-84.566312831411423
20
214.89127686842249
30
0
10
-88.504104086728859
20
214.89127686842249
30
0
10
-92.441895342046436
20
214.89127686842249
30
0
10
-95.634105877911892
20
218.08348740428829
30
0
10
-95.634105877911892
20
222.02127865960603
30
0
0
SPLINE
5
140
100
AcDbEntity
8
0
100
AcDbSpline
70
2
71
3
72
17
73
13
74
0
42
0.000000001
43
0.0000000001
44
0.0000000001
40
0
40
0
40
0
40
0
40
1
40
1
40
1
40
2
40
2
40
2
40
3
40
3
40
3
40
4
40
4
40
4
40
4
10
-25.001329946577471
20
129.28767315994233
30
0
10
-25.001329946577471
20
133.22546441525989
30
0
10
-21.809119410708107
20
136.41767495112643
30
0
10
-17.871328155392305
20
136.41767495112643
30
0
10
-13.933536900073875
20
136.41767495112643
30
0
10
-10.741326364207495
20
133.22546441525989
30
0
10
-10.741326364207495
20
129.28767315994233
30
0
10
-10.741326364207495
20
125.34988190462468
30
0
10
-13.933536900073875
20
122.15767136875809
30
0
10
-17.871328155392305
20
122.15767136875809
30
0
10
-21.809119410708107
20
122.15767136875809
30
0
10
-25.001329946577471
20
125.34988190462468
30
0
10
-25.001329946577471
20
129.28767315994233
30
0
0
SPLINE
5
141
100
AcDbEntity
8
0
100
AcDbSpline
70
2
71
3
72
17
73
13
74
0
42
0.000000001
43
0.0000000001
44
0.0000000001
40
0
40
0
40
0
40
0
40
1
40
1
40
1
40
2
40
2
40
2
40
3
40
3
40
3
40
4
40
4
40
4
40
4
10
-25.00096237278548
20
20.893961532051467
30
0
10
-25.00096237278548
20
24.831752787369116
30
0
10
-21.80875183691974
20
28.023963323235566
30
0
10
-17.87096058160202
20
28.023963323235566
30
0
10
-13.933169326283661
20
28.023963323235566
30
0
10
-10.740958790417139
20
24.831752787369116
30
0
10
-10.740958790417139
20
20.893961532051467
30
0
10
-10.740958790417139
20
16.956170276733818
30
0
10
-13.933169326283661
20
13.763959740867296
30
0
10
-17.87096058160202
20
13.763959740867296
30
0
10
-21.80875183691974
20
13.763959740867296
30
0
10
-25.00096237278548
20
16.956170276733818
30
0
10
-25.00096237278548
20
20.893961532051467
30
0
0
CIRCLE
5
142
100
AcDbEntity
8
0
100
AcDbCircle
10
-254.67609278053311
20
195.08647592198915
30
0
40
1.4999999999999858
210
0
220
-0
230
1
0
CIRCLE
5
143
100
AcDbEntity
8
0
100
AcDbCircle
10
-254.67609278053311
20
233.70128058170482
30
0
40
1.4999999999999858
210
0
220
-0
230
1
0
CIRCLE
5
144
100
AcDbEntity
8
0
100
AcDbCircle
10
-278.21764062510078
20
195.08647592198915
30
0
40
1.4999999999999858
210
0
220
-0
230
1
0
CIRCLE
5
145
100
AcDbEntity
8
0
100
AcDbCircle
10
-278.21764062510078
20
233.70128058170482
30
0
40
1.4999999999999858
210
0
220
-0
230
1
0
LWPOLYLINE
5
146
100
AcDbEntity
8
0
100
AcDbPolyline
90
4
70
1
43
0.0
10
-282.21764062510078
20
236.7612805817048
10
-7.217640693851024
20
236.7612805817048
10
-7.2176406938510951
20
6.7612806392051139
10
-282.21764062510078
20
6.7612806392051183
0
LWPOLYLINE
5
147
100
AcDbEntity
8
0
100
AcDbPolyline
90
4
70
1
43
0.0
10
-152.74846207376979
20
153.07193613948021
10
-152.74846207376976
20
157.07193613948024
10
-154.74846207376976
20
157.07193613948024
10
-154.74846207376976
20
153.07193613948021
0
LWPOLYLINE
5
148
100
AcDbEntity
8
0
100
AcDbPolyline
90
4
70
1
43
0.0
10
-168.28983303137562
20
153.07193613948024
10
-168.28983303137562
20
157.07193613948024
10
-170.28983303137557
20
157.07193613948024
10
-170.28983303137562
20
153.07193613948024
0
LWPOLYLINE
5
149
100
AcDbEntity
8
0
100
AcDbPolyline
90
4
70
1
43
0.0
10
-170.95999615465072
20
82.517171601137292
10
-168.95999615465072
20
82.517171601137292
10
-168.9599961546507
20
86.517171601137278
10
-170.9599961546507
20
86.517171601137278
0
LWPOLYLINE
5
150
100
AcDbEntity
8
0
100
AcDbPolyline
90
4
70
1
43
0.0
10
-155.41862519704489
20
82.517171601137292
10
-153.41862519704489
20
82.517171601137292
10
-153.41862519704489
20
86.517171601137278
10
-155.41862519704489
20
86.517171601137278
0
LWPOLYLINE
5
151
100
AcDbEntity
8
0
100
AcDbPolyline
90
4
70
1
43
0.0
10
-22.329837060903266
20
32.125179848047409
10
-12.329837060903264
20
32.125179848047409
10
-12.329837060903264
20
35.125179847299322
10
-22.329837060903266
20
35.125179847299322
0
LWPOLYLINE
5
152
100
AcDbEntity
8
0
100
AcDbPolyline
90
4
70
1
43
0.0
10
-17.329837060903255
20
199.10088623084545
10
-17.329837060903255
20
196.10088623159345
10
-12.329837060903255
20
196.10088623159345
10
-12.329837060903255
20
199.10088623084545
0
LWPOLYLINE
5
153
100
AcDbEntity
8
0
100
AcDbPolyline
90
4
70
1
43
0.0
10
-48.615239455158957
20
196.76109766191291
10
-48.615239455158957
20
186.76109766191291
10
-45.615239455910313
20
186.76109766191291
10
-45.615239455910313
20
196.76109766191291
0
LWPOLYLINE
5
154
100
AcDbEntity
8
0
100
AcDbPolyline
90
4
70
1
43
0.0
10
-45.615239455910313
20
166.76109766191291
10
-45.615239455910313
20
176.76109766191291
10
-48.615239455158957
20
176.76109766191291
10
-48.615239455158957
20
166.76109766191291
0
LWPOLYLINE
5
155
100
AcDbEntity
8
0
100
AcDbPolyline
90
4
70
1
43
0.0
10
-37.329837060903259
20
131.65068476686014
10
-47.329837060903259
20
131.65068476686014
10
-47.329837060903259
20
128.6506847676101
10
-37.329837060903259
20
128.65068476761013
0
LWPOLYLINE
5
156
100
AcDbEntity
8
0
100
AcDbPolyline
90
4
70
1
43
0.0
10
-67.329837060903259
20
128.65068476761007
10
-57.329837060903259
20
128.6506847676101
10
-57.329837060903259
20
131.65068476686014
10
-67.329837060903259
20
131.65068476686014
0
LWPOLYLINE
5
157
100
AcDbEntity
8
0
100
AcDbPolyline
90
4
70
1
43
0.0
10
-52.329837060903259
20
103.77141519032608
10
-52.329837060903259
20
100.77141519107425
10
-42.329837060903259
20
100.77141519107425
10
-42.329837060903259
20
103.77141519032608
0
LWPOLYLINE
5
158
100
AcDbEntity
8
0
100
AcDbPolyline
90
4
70
1
43
0.0
10
-42.695442402876779
20
76.761097661912913
10
-39.695442403628419
20
76.761097661912913
10
-39.695442403628405
20
86.761097661912913
10
-42.695442402876765
20
86.761097661912913
0
LWPOLYLINE
5
159
100
AcDbEntity
8
0
100
AcDbPolyline
90
4
70
1
43
0.0
10
-52.329837060903266
20
54.709124112699214
10
-52.329837060903266
20
51.709124113448972
10
-42.329837060903266
20
51.709124113448972
10
-42.329837060903266
20
54.70912411269925
0
LWPOLYLINE
5
160
100
AcDbEntity
8
0
100
AcDbPolyline
90
4
70
1
43
0.0
10
-79.742760968854597
20
12.76109766191292
10
-76.742760969606238
20
12.76109766191292
10
-76.742760969606238
20
19.761097661912924
10
-79.742760968854597
20
19.761097661912924
0
LWPOLYLINE
5
161
100
AcDbEntity
8
0
100
AcDbPolyline
90
4
70
1
43
0.0
10
-102.92309297308014
20
36.761097661912927
10
-99.92309297383143
20
36.761097661912927
10
-99.92309297383143
20
46.761097661912927
10
-102.92309297308014
20
46.761097661912927
0
LWPOLYLINE
5
162
100
AcDbEntity
8
0
100
AcDbPolyline
90
4
70
1
43
0.0
10
-92.329837060903287
20
51.709124113448979
10
-82.329837060903287
20
51.709124113448979
10
-82.329837060903259
20
54.709124112699222
10
-92.329837060903287
20
54.709124112699222
0
LWPOLYLINE
5
163
100
AcDbEntity
8
0
100
AcDbPolyline
90
4
70
1
43
0.0
10
-107.32983706090329
20
54.709124112699222
10
-117.32983706090329
20
54.709124112699222
10
-117.32983706090329
20
51.709124113448979
10
-107.32983706090329
20
51.709124113448979
0
LWPOLYLINE
5
164
100
AcDbEntity
8
0
100
AcDbPolyline
90
4
70
1
43
0.0
10
-77.329837060903273
20
76.898332095194348
10
-67.329837060903273
20
76.898332095194348
10
-67.329837060903259
20
79.898332094446289
10
-77.329837060903259
20
79.898332094446289
0
LWPOLYLINE
5
165
100
AcDbEntity
8
0
100
AcDbPolyline
90
4
70
1
43
0.0
10
-87.329837060903287
20
76.898332095194363
10
-87.329837060903259
20
79.898332094446289
10
-92.329837060903259
20
79.898332094446289
10
-92.329837060903287
20
76.898332095194363
0
LWPOLYLINE
5
166
100
AcDbEntity
8
0
100
AcDbPolyline
90
4
70
1
43
0.0
10
-100.71548477039086
20
116.76109766191291
10
-100.71548477039086
20
106.76109766191291
10
-97.715484771138662
20
106.76109766191291
10
-97.715484771138662
20
116.76109766191291
0
LWPOLYLINE
5
167
100
AcDbEntity
8
0
100
AcDbPolyline
90
4
70
1
43
0.0
10
-100.71548477039086
20
86.761097661912913
10
-97.715484771138662
20
86.761097661912913
10
-97.715484771138662
20
96.761097661912913
10
-100.71548477039086
20
96.761097661912913
0
LWPOLYLINE
5
168
100
AcDbEntity
8
0
100
AcDbPolyline
90
8
70
1
43
0.0
10
-87.260000184178352
20
159.52995434339397
10
-87.329837060903245
20
159.52995434339397
10
-87.329837060903287
20
156.52995434414149
10
-77.329837060903259
20
156.52995434414149
10
-77.329837060903245
20
156.53818980579854
10
-77.260000184178352
20
156.53818980579854
10
-77.260000184178352
20
159.53818980505099
10
-87.260000184178352
20
159.53818980505099
0
LWPOLYLINE
5
169
100
AcDbEntity
8
0
100
AcDbPolyline
90
4
70
1
43
0.0
10
-103.63956176157973
20
226.76109766191291
10
-103.63956176157973
20
216.76109766191291
10
-100.63956176232752
20
216.76109766191291
10
-100.63956176232752
20
226.76109766191291
0
LWPOLYLINE
5
170
100
AcDbEntity
8
0
100
AcDbPolyline
90
4
70
1
43
0.0
10
-100.63956176232749
20
196.76109766191291
10
-100.6395617623275
20
206.76109766191291
10
-103.63956176157973
20
206.76109766191291
10
-103.63956176157973
20
196.76109766191291
0
LWPOLYLINE
5
171
100
AcDbEntity
8
0
100
AcDbPolyline
90
4
70
1
43
0.0
10
-75.240889754908665
20
216.76109766191291
10
-72.240889755656468
20
216.76109766191291
10
-72.240889755656468
20
226.76109766191291
10
-75.240889754908665
20
226.76109766191291
0
LWPOLYLINE
5
172
100
AcDbEntity
8
0
100
AcDbPolyline
90
4
70
1
43
0.0
10
-124.7224944019614
20
199.76109766191297
10
-121.72249440270963
20
199.76109766191288
10
-121.72249440270963
20
209.76109766191291
10
-124.7224944019614
20
209.76109766191291
0
LWPOLYLINE
5
173
100
AcDbEntity
8
0
100
AcDbPolyline
90
4
70
1
43
0.0
10
-146.99892132333719
20
196.76109766191291
10
-146.99892132333719
20
186.76109766191291
10
-143.99892132408522
20
186.76109766191291
10
-143.99892132408522
20
196.76109766191291
0
LWPOLYLINE
5
174
100
AcDbEntity
8
0
100
AcDbPolyline
90
4
70
1
43
0.0
10
-146.99892132333719
20
166.76109766191291
10
-143.99892132408522
20
166.76109766191291
10
-143.99892132408522
20
176.76109766191291
10
-146.99892132333719
20
176.76109766191291
0
LWPOLYLINE
5
175
100
AcDbEntity
8
0
100
AcDbPolyline
90
8
70
1
43
0.0
10
-137.32983706090326
20
159.52995434339397
10
-137.32983706090329
20
144.52995434414137
10
-127.32983706090329
20
144.52995434414137
10
-127.32983706090326
20
144.53818980579842
10
-127.26000018417835
20
144.53818980579842
10
-127.26000018417835
20
159.53818980505099
10
-137.26000018417835
20
159.53818980505099
10
-137.26000018417835
20
159.52995434339397
0
LWPOLYLINE
5
176
100
AcDbEntity
8
0
100
AcDbPolyline
90
8
70
1
43
0.0
10
-187.32983706090329
20
159.52995434339397
10
-187.32983706090329
20
144.5299543441414
10
-177.32983706090329
20
144.5299543441414
10
-177.32983706090329
20
144.53818980579842
10
-177.26000018417835
20
144.53818980579842
10
-177.26000018417835
20
159.53818980505099
10
-187.26000018417835
20
159.53818980505099
10
-187.26000018417835
20
159.52995434339397
0
LWPOLYLINE
5
177
100
AcDbEntity
8
0
100
AcDbPolyline
90
4
70
1
43
0.0
10
-122.96879969377591
20
126.76109766191291
10
-122.96879969377591
20
136.76109766191291
10
-125.96879969302455
20
136.76109766191291
10
-125.96879969302455
20
126.76109766191291
0
LWPOLYLINE
5
178
100
AcDbEntity
8
0
100
AcDbPolyline
90
4
70
1
43
0.0
10
-125.96879969302455
20
76.761097661912927
10
-125.96879969302455
20
66.761097661912927
10
-122.96879969377591
20
66.761097661912927
10
-122.96879969377591
20
76.761097661912927
0
LWPOLYLINE
5
179
100
AcDbEntity
8
0
100
AcDbPolyline
90
4
70
1
43
0.0
10
-122.96879969377591
20
106.76109766191291
10
-125.96879969302455
20
106.76109766191291
10
-125.96879969302455
20
96.761097661912913
10
-122.96879969377591
20
96.761097661912913
0
LWPOLYLINE
5
180
100
AcDbEntity
8
0
100
AcDbPolyline
90
8
70
1
43
0.0
10
-147.32983706090329
20
96.508936139480284
10
-147.32983706090329
20
81.508936140230219
10
-137.32983706090329
20
81.508936140230219
10
-137.32983706090326
20
81.51717160188727
10
-137.26000018417835
20
81.51717160188727
10
-137.26000018417835
20
96.517171601137335
10
-147.26000018417835
20
96.517171601137335
10
-147.26000018417835
20
96.508936139480284
0
LWPOLYLINE
5
181
100
AcDbEntity
8
0
100
AcDbPolyline
90
12
70
1
43
0.0
10
-184.02825483383566
20
216.7610976619128
10
-169.02825483458699
20
216.76109766191291
10
-169.02825483458699
20
216.76933312356996
10
-168.95841795786203
20
216.76933312356996
10
-168.958417957862
20
226.76933312356996
10
-170.28825483383557
20
226.76933312356996
10
-170.28825483383559
20
229.32409766191287
10
-172.28825483383559
20
229.32409766191287
10
-172.28825483383559
20
226.76933312356996
10
-183.95841795711073
20
226.76933312356991
10
-183.95841795711073
20
226.7610976619128
10
-184.02825483383566
20
226.7610976619128
0
LWPOLYLINE
5
182
100
AcDbEntity
8
0
100
AcDbPolyline
90
8
70
1
43
0.0
10
-238.67781886429907
20
216.76109766191291
10
-238.67781886429901
20
216.76933312356996
10
-238.60798198757414
20
216.76933312356996
10
-238.60798198757422
20
226.76933312356996
10
-250.60798198682301
20
226.76933312356996
10
-250.60798198682301
20
226.76109766191291
10
-250.67781886354794
20
226.76109766191291
10
-250.67781886354794
20
216.76109766191291
0
ENDSEC
0
SECTION
2
OBJECTS
0
DICTIONARY
5
C
100
AcDbDictionary
3
ACAD_GROUP
350
D
3
ACAD_MLINESTYLE
350
17
0
DICTIONARY
5
D
100
AcDbDictionary
0
DICTIONARY
5
1A
330
C
100
AcDbDictionary
0
DICTIONARY
5
17
100
AcDbDictionary
0
ENDSEC
0
EOF
